<?xml version="1.0" encoding="utf-8"?>
<!-- Generator: Adobe Illustrator 27.5.0, SVG Export Plug-In . SVG Version: 6.00 Build 0)  -->
<svg version="1.1" xmlns="http://www.w3.org/2000/svg" xmlns:xlink="http://www.w3.org/1999/xlink" x="0px" y="0px"
	 viewBox="0 0 500 500" style="enable-background:new 0 0 500 500;" xml:space="preserve">
<g id="BACKGROUND">
	<rect style="fill:#FFFFFF;" width="500" height="500"/>
</g>
<g id="OBJECTS">
	<g>
		<g>
			<path style="fill:#4EDDBB;" d="M142.826,421.983H15.571c-2.098-3.611-0.47-9.685,2.971-12.051
				c3.441-2.366,7.733-3.005,11.786-4.008c4.053-1.004,8.309-2.666,10.503-6.219c2.615-4.235,1.656-10.158,4.847-13.977
				c3.919-4.691,11.436-3.448,16.972-6.038c5.874-2.748,8.722-9.36,13.256-13.996c8.188-8.371,21.969-9.565,32.64-4.744
				c10.672,4.821,18.426,14.66,23.137,25.38C136.395,397.05,140.846,410.442,142.826,421.983z"/>
			<path style="fill:#4EDDBB;" d="M485.363,421.717H384.978c7.675-26.158,15.378-54.012,23.054-80.169
				c1.321-4.503,4.526-8.916,7.81-11.079c3.285-2.163,7.899-1.515,9.855,2.571c2.117,4.424,0.55,11.112,3.413,14.74
				c2.836,3.595,7.439,1.295,11.372,0.957c4.132-0.355,8.349,1.927,11.091,6.001s3.949,9.852,3.174,15.194
				c-0.341,2.353-1.042,4.61-1.244,6.99c-0.202,2.38,0.215,5.061,1.67,6.503c2.209,2.189,5.669,0.591,7.919,2.706
				c2.343,2.202,2.01,6.972,3.627,10.104c1.768,3.426,5.312,4.069,8.251,5.563C480.966,404.845,485.164,413.279,485.363,421.717z"/>
			<g>
				<path style="fill:#FF6B57;" d="M453.91,345.499c0,1.892-1.533,7.571-3.425,7.571c-1.892,0-3.425-5.679-3.425-7.571
					c0-1.892,1.533-3.425,3.425-3.425C452.377,342.074,453.91,343.607,453.91,345.499z"/>
				<path style="fill:#FF6B57;" d="M444.344,347.473c1.799,0.585,6.726,3.798,6.142,5.597c-0.585,1.799-6.46,1.502-8.258,0.918
					c-1.799-0.585-2.783-2.517-2.199-4.316C440.613,347.873,442.545,346.888,444.344,347.473z"/>
				<path style="fill:#FF6B57;" d="M443.265,357.181c1.112-1.53,5.69-5.224,7.221-4.112c1.53,1.112-0.567,6.608-1.679,8.138
					c-1.112,1.53-3.254,1.87-4.784,0.758C442.492,360.853,442.153,358.712,443.265,357.181z"/>
				<path style="fill:#FF6B57;" d="M452.165,361.207c-1.112-1.53-3.209-7.026-1.679-8.138c1.53-1.112,6.109,2.581,7.221,4.112
					c1.112,1.53,0.772,3.672-0.758,4.784C455.418,363.077,453.276,362.738,452.165,361.207z"/>
				<path style="fill:#FF6B57;" d="M458.744,353.987c-1.799,0.585-7.674,0.881-8.258-0.918c-0.585-1.799,4.343-5.012,6.142-5.597
					c1.799-0.585,3.731,0.4,4.316,2.199C461.527,351.471,460.543,353.403,458.744,353.987z"/>
				<circle style="fill:#FFC741;" cx="450.486" cy="352.935" r="3.005"/>
			</g>
			<g>
				<path style="fill:#FF6B57;" d="M448.621,374.033c0,1.892-1.533,7.571-3.425,7.571s-3.425-5.679-3.425-7.571
					c0-1.892,1.533-3.425,3.425-3.425S448.621,372.142,448.621,374.033z"/>
				<path style="fill:#FF6B57;" d="M439.055,376.007c1.799,0.585,6.726,3.798,6.142,5.597c-0.585,1.799-6.46,1.502-8.259,0.918
					c-1.799-0.585-2.783-2.517-2.199-4.316C435.324,376.407,437.256,375.422,439.055,376.007z"/>
				<path style="fill:#FF6B57;" d="M437.976,385.716c1.112-1.53,5.69-5.224,7.221-4.112c1.53,1.112-0.567,6.608-1.679,8.138
					c-1.112,1.53-3.254,1.87-4.784,0.758C437.203,389.388,436.864,387.246,437.976,385.716z"/>
				<path style="fill:#FF6B57;" d="M446.876,389.742c-1.112-1.53-3.209-7.026-1.679-8.138c1.53-1.112,6.109,2.581,7.221,4.112
					c1.112,1.53,0.773,3.672-0.758,4.784C450.129,391.611,447.987,391.272,446.876,389.742z"/>
				<path style="fill:#FF6B57;" d="M453.455,382.522c-1.799,0.585-7.674,0.881-8.258-0.918c-0.585-1.799,4.343-5.012,6.142-5.597
					c1.799-0.585,3.731,0.4,4.316,2.199C456.238,380.005,455.254,381.937,453.455,382.522z"/>
				<circle style="fill:#FFC741;" cx="445.197" cy="381.47" r="3.005"/>
			</g>
			<g>
				<path style="fill:#FF6B57;" d="M70.086,368.638c0,1.892-1.533,7.571-3.425,7.571s-3.425-5.679-3.425-7.571
					c0-1.892,1.533-3.425,3.425-3.425S70.086,366.746,70.086,368.638z"/>
				<path style="fill:#FF6B57;" d="M60.52,370.612c1.799,0.585,6.726,3.798,6.142,5.597c-0.584,1.799-6.459,1.502-8.258,0.918
					c-1.799-0.585-2.783-2.517-2.199-4.316C56.789,371.012,58.721,370.027,60.52,370.612z"/>
				<path style="fill:#FF6B57;" d="M59.441,380.32c1.112-1.53,5.69-5.223,7.221-4.112c1.53,1.112-0.567,6.608-1.679,8.138
					c-1.112,1.53-3.254,1.87-4.784,0.758C58.668,383.992,58.329,381.851,59.441,380.32z"/>
				<path style="fill:#FF6B57;" d="M68.341,384.347c-1.112-1.53-3.209-7.026-1.679-8.138c1.53-1.112,6.109,2.581,7.221,4.112
					c1.112,1.53,0.773,3.672-0.758,4.784C71.594,386.216,69.452,385.877,68.341,384.347z"/>
				<path style="fill:#FF6B57;" d="M74.92,377.126c-1.799,0.585-7.674,0.881-8.258-0.918c-0.584-1.799,4.343-5.012,6.142-5.597
					c1.799-0.585,3.731,0.4,4.316,2.199C77.703,374.61,76.719,376.542,74.92,377.126z"/>
				<circle style="fill:#FFC741;" cx="66.661" cy="376.074" r="3.005"/>
			</g>
			<g>
				<path style="fill:#FF6B57;" d="M62.211,394.081c0,1.891-1.533,7.571-3.425,7.571c-1.891,0-3.425-5.679-3.425-7.571
					c0-1.892,1.533-3.425,3.425-3.425C60.678,390.655,62.211,392.189,62.211,394.081z"/>
				<path style="fill:#FF6B57;" d="M52.645,396.054c1.799,0.585,6.726,3.798,6.142,5.597c-0.584,1.799-6.459,1.502-8.258,0.918
					c-1.799-0.585-2.784-2.517-2.199-4.316C48.914,396.454,50.846,395.47,52.645,396.054z"/>
				<path style="fill:#FF6B57;" d="M51.566,405.763c1.112-1.53,5.69-5.223,7.221-4.112c1.53,1.112-0.567,6.608-1.679,8.138
					c-1.112,1.53-3.254,1.87-4.784,0.758C50.793,409.435,50.454,407.293,51.566,405.763z"/>
				<path style="fill:#FF6B57;" d="M60.465,409.789c-1.112-1.53-3.209-7.026-1.679-8.138c1.53-1.112,6.109,2.581,7.221,4.112
					c1.112,1.53,0.772,3.672-0.758,4.784C63.719,411.659,61.577,411.319,60.465,409.789z"/>
				<path style="fill:#FF6B57;" d="M67.045,402.569c-1.799,0.585-7.674,0.881-8.258-0.918c-0.584-1.799,4.343-5.012,6.142-5.597
					c1.799-0.585,3.731,0.4,4.316,2.199C69.828,400.052,68.844,401.984,67.045,402.569z"/>
				<circle style="fill:#FFC741;" cx="58.786" cy="401.517" r="3.005"/>
			</g>
			<g>
				<path style="fill:#FF6B57;" d="M468.777,390.451c0,1.892-1.533,7.571-3.425,7.571c-1.891,0-3.425-5.679-3.425-7.571
					c0-1.892,1.533-3.425,3.425-3.425C467.244,387.026,468.777,388.56,468.777,390.451z"/>
				<path style="fill:#FF6B57;" d="M459.21,392.425c1.799,0.585,6.726,3.798,6.142,5.597c-0.585,1.799-6.46,1.502-8.258,0.918
					c-1.799-0.585-2.784-2.517-2.199-4.316C455.479,392.825,457.411,391.841,459.21,392.425z"/>
				<path style="fill:#FF6B57;" d="M458.131,402.134c1.112-1.53,5.69-5.223,7.221-4.112c1.53,1.112-0.567,6.608-1.679,8.138
					c-1.112,1.53-3.254,1.869-4.784,0.758C457.359,405.806,457.02,403.664,458.131,402.134z"/>
				<path style="fill:#FF6B57;" d="M467.031,406.16c-1.112-1.53-3.209-7.026-1.679-8.138c1.53-1.112,6.109,2.581,7.221,4.112
					c1.112,1.53,0.772,3.672-0.758,4.784C470.285,408.029,468.143,407.69,467.031,406.16z"/>
				<path style="fill:#FF6B57;" d="M473.611,398.94c-1.799,0.585-7.674,0.881-8.259-0.918c-0.585-1.799,4.343-5.012,6.142-5.597
					c1.799-0.585,3.731,0.4,4.316,2.199C476.394,396.423,475.409,398.355,473.611,398.94z"/>
				<circle style="fill:#FFC741;" cx="465.352" cy="397.888" r="3.005"/>
			</g>
		</g>
		<g>
			<path style="fill:#788BF0;" d="M444.969,436.866H48.49c-4.528,0-8.198-3.67-8.198-8.198v-0.83c0-4.528,3.67-8.198,8.198-8.198
				h396.479c4.528,0,8.198,3.67,8.198,8.198v0.83C453.167,433.196,449.496,436.866,444.969,436.866z"/>
			<g>
				<g>
					<g>
						<g>
							<path style="fill:#FFC741;" d="M38.978,335.324c4.435,0.162,10.055-0.943,16.594-4.104c0,0,1.136-6.825,0.316-13.454
								c-0.748-6.099-3.154-12.041-9.626-12.338c-8.407,0.883-5.574,10.937-5.574,10.937s-4.277-6.811-8.524-3.607
								c-4.215,3.184-1.38,10.092,3.621,11.192c-0.868-0.163-7.673-1.297-7.886,4.048C27.756,331.525,31.821,335.069,38.978,335.324
								z"/>
							<g>
								<g>
									<path style="fill:#3C3175;" d="M81.451,378.014c-0.051,0.024-0.105,0.043-0.162,0.059
										c-0.533,0.143-1.082-0.173-1.225-0.706c-5.248-19.509-16.337-37.775-31.226-51.432c-0.407-0.373-0.434-1.006-0.061-1.413
										c0.375-0.408,1.007-0.435,1.413-0.061c15.164,13.91,26.459,32.515,31.805,52.387
										C82.123,377.325,81.884,377.813,81.451,378.014z"/>
								</g>
								<g>
									<path style="fill:#3C3175;" d="M63.497,341.138c-0.135,0.063-0.286,0.096-0.445,0.092l-12.098-0.307
										c-0.552-0.014-0.988-0.473-0.974-1.025c0.014-0.552,0.471-0.99,1.025-0.974l12.098,0.307
										c0.552,0.014,0.988,0.473,0.974,1.025C64.067,340.649,63.832,340.983,63.497,341.138z"/>
								</g>
								<g>
									<path style="fill:#3C3175;" d="M60.61,337.433c-0.169,0.078-0.361,0.111-0.559,0.083c-0.547-0.077-0.928-0.582-0.852-1.129
										l1.701-12.125c0.077-0.547,0.583-0.928,1.129-0.851c0.547,0.077,0.928,0.582,0.851,1.129l-1.701,12.126
										C61.132,337.014,60.908,337.295,60.61,337.433z"/>
								</g>
								<path style="fill:#FF6B57;" d="M47.258,340.536c0.307,1.866,2.069,3.129,3.935,2.822c1.866-0.307,3.129-2.069,2.822-3.935
									c-0.307-1.866-2.069-3.129-3.935-2.822C48.215,336.909,46.951,338.671,47.258,340.536z"/>
								<path style="fill:#FF6B57;" d="M58.432,323.73c0.307,1.866,2.069,3.129,3.934,2.822c1.866-0.307,3.13-2.069,2.822-3.935
									c-0.307-1.866-2.069-3.129-3.935-2.822C59.389,320.103,58.125,321.864,58.432,323.73z"/>
							</g>
							<path style="fill:#FF6B57;" d="M38.978,335.324c4.435,0.162,10.055-0.943,16.594-4.104c0,0,1.136-6.825,0.316-13.454
								c-0.187-0.405-0.425-0.787-0.723-1.134c-1.48-1.75-4.322-2.149-6.225-0.869c-1.909,1.276-2.618,4.058-1.562,6.094
								c-0.712-1.676-3.079-2.574-4.818-2.033c-1.735,0.536-2.951,2.344-2.932,4.165c0.019,1.82,1.184,3.542,2.805,4.378
								c-1.65-0.56-3.649,0.966-4.268,2.591C37.611,332.408,38.01,334.1,38.978,335.324z"/>
						</g>
						<g>
							<path style="fill:#FFC741;" d="M468.031,311.656c-4.588,0.705-10.56,0.237-17.736-2.254c0,0-2.007-6.953-1.957-13.938
								c0.039-6.427,1.819-12.891,8.506-13.983c8.84-0.101,7.115,10.688,7.115,10.688s3.619-7.594,8.419-4.779
								c4.765,2.797,2.656,10.317-2.406,12.066c0.882-0.274,7.814-2.277,8.682,3.251
								C479.229,306.35,475.435,310.524,468.031,311.656z"/>
							<g>
								<g>
									<path style="fill:#3C3175;" d="M429.406,361.155c-0.049,0-0.098-0.004-0.147-0.011c-0.546-0.081-0.924-0.589-0.843-1.136
										c3.146-21.282,12.623-41.969,26.687-58.251c0.361-0.418,0.992-0.464,1.411-0.103c0.418,0.361,0.464,0.993,0.103,1.411
										c-13.819,15.998-23.131,36.325-26.222,57.236C430.321,360.798,429.894,361.155,429.406,361.155z"/>
								</g>
								<g>
									<path style="fill:#3C3175;" d="M443.587,320.671c-0.49,0-0.917-0.36-0.989-0.859c-0.078-0.547,0.303-1.053,0.849-1.131
										l12.531-1.783c0.55-0.072,1.053,0.302,1.131,0.849c0.078,0.547-0.303,1.053-0.849,1.131l-12.531,1.783
										C443.682,320.668,443.634,320.671,443.587,320.671z"/>
								</g>
								<g>
									<path style="fill:#3C3175;" d="M446.139,316.473c-0.444,0-0.85-0.298-0.967-0.748l-3.235-12.391
										c-0.139-0.534,0.181-1.081,0.715-1.22c0.534-0.139,1.08,0.181,1.22,0.715l3.235,12.391c0.139,0.534-0.181,1.081-0.715,1.22
										C446.308,316.462,446.223,316.473,446.139,316.473z"/>
								</g>
								<path style="fill:#FF6B57;" d="M460.06,318.073c-0.093,1.976-1.77,3.502-3.746,3.409c-1.975-0.093-3.502-1.77-3.408-3.746
									c0.093-1.976,1.77-3.502,3.746-3.409C458.627,314.421,460.153,316.098,460.06,318.073z"/>
								<path style="fill:#FF6B57;" d="M446.417,301.967c-0.093,1.976-1.77,3.502-3.746,3.409c-1.975-0.093-3.502-1.77-3.408-3.746
									c0.093-1.976,1.77-3.502,3.746-3.408C444.984,298.314,446.51,299.991,446.417,301.967z"/>
							</g>
							<path style="fill:#FF6B57;" d="M468.031,311.656c-4.588,0.705-10.56,0.237-17.736-2.254c0,0-2.007-6.953-1.957-13.938
								c0.145-0.444,0.346-0.869,0.613-1.265c1.326-1.998,4.229-2.756,6.362-1.657c2.138,1.095,3.212,3.899,2.361,6.141
								c0.536-1.828,2.887-3.047,4.76-2.695c1.868,0.347,3.349,2.078,3.55,3.972c0.201,1.893-0.801,3.824-2.384,4.888
								c1.647-0.782,3.907,0.562,4.747,2.175C469.098,308.461,468.889,310.267,468.031,311.656z"/>
						</g>
						<path style="fill:#4EDDBB;" d="M390.655,233.647c0,0,11.681-14.215,33.354-13.097
							C424.009,220.55,409.621,245.686,390.655,233.647z"/>
						<g>
							<path style="fill:#FFC741;" d="M424.49,202.822c-4.588,0.705-10.56,0.237-17.736-2.254c0,0-2.007-6.953-1.957-13.938
								c0.039-6.427,1.819-12.891,8.506-13.984c8.84-0.101,7.115,10.688,7.115,10.688s3.619-7.594,8.419-4.779
								c4.765,2.797,2.656,10.317-2.406,12.066c0.882-0.274,7.814-2.277,8.682,3.251
								C435.687,197.516,431.893,201.691,424.49,202.822z"/>
							<g>
								<g>
									<path style="fill:#3C3175;" d="M385.865,252.322c-0.049,0-0.098-0.004-0.147-0.011c-0.546-0.081-0.924-0.589-0.843-1.136
										c3.146-21.282,12.623-41.969,26.687-58.251c0.361-0.418,0.992-0.464,1.411-0.103c0.418,0.361,0.464,0.993,0.103,1.411
										c-13.819,15.998-23.131,36.325-26.222,57.236C386.779,251.964,386.352,252.322,385.865,252.322z"/>
								</g>
								<g>
									<path style="fill:#3C3175;" d="M400.046,211.837c-0.49,0-0.918-0.36-0.989-0.859c-0.078-0.547,0.303-1.053,0.849-1.131
										l12.531-1.783c0.55-0.072,1.053,0.302,1.131,0.849c0.078,0.547-0.303,1.053-0.849,1.131l-12.531,1.783
										C400.14,211.834,400.092,211.837,400.046,211.837z"/>
								</g>
								<g>
									<path style="fill:#3C3175;" d="M402.597,207.639c-0.444,0-0.85-0.298-0.967-0.748l-3.235-12.391
										c-0.139-0.534,0.181-1.081,0.715-1.22c0.534-0.139,1.08,0.181,1.22,0.715l3.235,12.391c0.139,0.534-0.181,1.081-0.715,1.22
										C402.766,207.629,402.681,207.639,402.597,207.639z"/>
								</g>
								<path style="fill:#FF6B57;" d="M416.518,209.24c-0.093,1.976-1.77,3.502-3.746,3.409c-1.976-0.093-3.502-1.77-3.409-3.746
									c0.093-1.976,1.77-3.502,3.746-3.408C415.085,205.587,416.611,207.264,416.518,209.24z"/>
								<path style="fill:#FF6B57;" d="M402.875,193.133c-0.093,1.976-1.77,3.502-3.746,3.408c-1.976-0.093-3.502-1.77-3.409-3.746
									c0.093-1.976,1.77-3.502,3.746-3.408C401.442,189.48,402.968,191.158,402.875,193.133z"/>
							</g>
							<path style="fill:#FF6B57;" d="M424.49,202.822c-4.588,0.705-10.56,0.237-17.736-2.254c0,0-2.007-6.953-1.957-13.938
								c0.145-0.443,0.346-0.869,0.613-1.265c1.326-1.998,4.229-2.756,6.362-1.657c2.138,1.095,3.212,3.899,2.361,6.141
								c0.536-1.828,2.887-3.047,4.76-2.695c1.868,0.347,3.349,2.078,3.55,3.972c0.201,1.893-0.801,3.824-2.384,4.888
								c1.647-0.782,3.907,0.562,4.747,2.175C425.556,199.627,425.347,201.434,424.49,202.822z"/>
						</g>
						<path style="fill:#4EDDBB;" d="M374.049,235.526c5.706-0.506,12.311-0.682,16.154,3.566c1.681,1.859,2.541,4.305,3.926,6.393
							c2.104,3.171,5.478,5.473,9.199,6.274c2.426,0.522,4.942,0.426,7.399,0.779c2.456,0.352,5.003,1.268,6.462,3.276
							c1.321,1.818,1.546,4.241,2.79,6.112c2.195,3.302,6.719,3.906,10.112,5.959c3.365,2.036,5.622,5.589,6.73,9.362
							c1.109,3.774,1.169,7.777,0.92,11.702h-73.856v-47.814c1.542,0,3.517-1.863,4.713-2.837
							C370.09,237.083,372.132,235.696,374.049,235.526z"/>
						<path style="fill:#788BF0;" d="M67.76,228.106c0,0,22.181,2.534,33.305,23.371C101.065,251.477,83.713,250.75,67.76,228.106z"
							/>
						<g>
							<path style="fill:#FFC741;" d="M202.131,184.731c3.955,2.013,9.518,3.375,16.78,3.26c0,0,3.903-5.713,5.948-12.072
								c1.888-5.848,2.205-12.25-3.54-15.243c-7.998-2.737-9.659,7.576-9.659,7.576s-1.014-7.978-6.215-6.859
								c-5.164,1.114-5.498,8.574-1.425,11.677c-0.719-0.513-6.415-4.406-8.857,0.354
								C193.551,176.563,195.747,181.489,202.131,184.731z"/>
							<g>
								<g>
									<path style="fill:#3C3175;" d="M222.697,241.331c-0.057,0-0.114-0.005-0.172-0.015c-0.544-0.094-0.909-0.612-0.814-1.156
										c3.449-19.906,1.075-41.143-6.684-59.797c-0.212-0.51,0.029-1.095,0.539-1.307c0.512-0.212,1.096,0.029,1.308,0.539
										c7.903,19,10.32,40.63,6.808,60.906C223.597,240.988,223.174,241.331,222.697,241.331z"/>
								</g>
								<g>
									<path style="fill:#3C3175;" d="M221.928,200.324c-0.149,0-0.3-0.033-0.443-0.104l-10.846-5.369
										c-0.495-0.245-0.697-0.845-0.452-1.34c0.245-0.495,0.843-0.7,1.34-0.452l10.846,5.369c0.495,0.245,0.697,0.845,0.452,1.34
										C222.651,200.12,222.297,200.324,221.928,200.324z"/>
								</g>
								<g>
									<path style="fill:#3C3175;" d="M220.868,195.748c-0.186,0-0.374-0.052-0.542-0.16c-0.464-0.3-0.597-0.919-0.297-1.382
										l6.645-10.284c0.3-0.464,0.92-0.597,1.382-0.297c0.464,0.3,0.597,0.919,0.297,1.382l-6.645,10.284
										C221.517,195.587,221.196,195.748,220.868,195.748z"/>
								</g>
								<path style="fill:#FF6B57;" d="M207.45,192.945c-0.507,1.822,0.56,3.709,2.382,4.216c1.822,0.507,3.709-0.56,4.216-2.382
									c0.507-1.822-0.56-3.709-2.382-4.216C209.844,190.057,207.956,191.123,207.45,192.945z"/>
								<path style="fill:#FF6B57;" d="M224.658,182.4c-0.507,1.822,0.56,3.709,2.382,4.216c1.822,0.507,3.709-0.56,4.216-2.382
									c0.507-1.822-0.56-3.709-2.382-4.216C227.053,179.512,225.165,180.579,224.658,182.4z"/>
							</g>
							<path style="fill:#FF6B57;" d="M202.131,184.731c3.955,2.013,9.518,3.375,16.78,3.26c0,0,3.903-5.713,5.948-12.072
								c0.001-0.446-0.055-0.893-0.179-1.332c-0.606-2.211-3.016-3.768-5.281-3.408c-2.269,0.354-4.083,2.58-3.981,4.871
								c0.06-1.82-1.71-3.631-3.516-3.871c-1.8-0.244-3.663,0.885-4.412,2.544c-0.749,1.66-0.416,3.712,0.702,5.152
								c-1.261-1.202-3.716-0.659-4.962,0.555C202.119,181.511,201.768,183.214,202.131,184.731z"/>
						</g>
						<path style="fill:#4EDDBB;" d="M223.347,236.047c0,0-3.235-30.573,23.501-55.071
							C246.848,180.976,259.915,227.575,223.347,236.047z"/>
						<path style="fill:#4EDDBB;" d="M223.347,236.047c0,0-1.619-26.491-19.64-36.724
							C203.707,199.323,200.937,229.759,223.347,236.047z"/>
						<g>
							<path style="fill:#FFC741;" d="M150.236,168.699c-4.167,3.97-10.572,7.729-19.637,10.283c0,0-6.971-5.649-11.873-12.789
								c-4.517-6.564-7.29-14.401-1.263-20.254c8.92-6.371,14.815,5.825,14.815,5.825s-1.703-10.289,5.174-10.83
								c6.829-0.534,10.016,8.61,6.108,13.978c0.703-0.904,6.334-7.856,11.136-2.85
								C157.863,155.363,156.964,162.299,150.236,168.699z"/>
							<g>
								<g>
									<path style="fill:#3C3175;" d="M145.34,246.416c-0.368,0-0.721-0.203-0.896-0.555
										c-11.871-23.837-16.892-51.551-14.136-78.037c0.057-0.549,0.54-0.956,1.098-0.891c0.549,0.057,0.948,0.549,0.891,1.098
										c-2.716,26.113,2.233,53.437,13.937,76.938c0.246,0.495,0.045,1.095-0.449,1.341
										C145.641,246.382,145.489,246.416,145.34,246.416z"/>
								</g>
								<g>
									<path style="fill:#3C3175;" d="M131.059,195.182c-0.268,0-0.535-0.107-0.731-0.318c-0.376-0.404-0.354-1.037,0.05-1.413
										l11.481-10.699c0.403-0.376,1.037-0.354,1.413,0.05c0.376,0.404,0.354,1.037-0.05,1.413l-11.481,10.699
										C131.549,195.094,131.303,195.182,131.059,195.182z"/>
								</g>
								<g>
									<path style="fill:#3C3175;" d="M130.677,189.104c-0.229,0-0.46-0.079-0.649-0.239l-12.077-10.309
										c-0.42-0.359-0.47-0.99-0.111-1.41c0.357-0.42,0.989-0.471,1.41-0.111l12.077,10.309c0.42,0.359,0.47,0.99,0.111,1.41
										C131.24,188.985,130.96,189.104,130.677,189.104z"/>
								</g>
								<path style="fill:#FF6B57;" d="M146.679,180.879c1.306,2.075,0.682,4.816-1.393,6.123c-2.075,1.306-4.817,0.682-6.123-1.393
									c-1.306-2.075-0.682-4.817,1.393-6.123C142.632,178.18,145.373,178.804,146.679,180.879z"/>
								<path style="fill:#FF6B57;" d="M121.382,174.171c1.306,2.075,0.682,4.816-1.393,6.123c-2.075,1.306-4.817,0.682-6.123-1.393
									c-1.306-2.075-0.682-4.817,1.393-6.123C117.335,171.472,120.076,172.096,121.382,174.171z"/>
							</g>
							<path style="fill:#FF6B57;" d="M150.236,168.699c-4.167,3.97-10.572,7.729-19.637,10.283c0,0-6.971-5.649-11.873-12.789
								c-0.167-0.554-0.264-1.129-0.273-1.722c-0.068-2.972,2.347-5.802,5.296-6.196c2.951-0.402,6.031,1.688,6.756,4.573
								c-0.75-2.239,0.776-5.146,2.93-6.116c2.146-0.972,4.88-0.261,6.427,1.523c1.547,1.784,1.896,4.457,1.041,6.661
								c1.121-1.962,4.373-2.199,6.371-1.154C149.056,164.693,150.124,166.679,150.236,168.699z"/>
						</g>
						<g>
							<path style="fill:#4EDDBB;" d="M279.813,262.393c-3.147-6.728-9.478-12.388-16.89-12.867
								c-4.955-0.32-10.033,1.626-14.814,0.285c-6.46-1.813-9.966-8.854-15.795-12.177c-9.742-5.553-22.848,0.648-32.937-4.246
								c-7.138-3.462-10.718-11.455-16.412-16.979c-6.01-5.831-14.659-8.828-22.988-7.966s-16.181,5.567-20.869,12.505
								c-3.574,5.289-5.921,12.248-11.883,14.528c-5.391,2.062-11.702-0.687-17.133,1.268c-8.295,2.985-9.852,14.728-17.35,19.364
								c-4.498,2.781-10.316,2.464-15.036,4.849c-4.368,2.207-7.366,6.581-8.772,11.268c-0.78,2.6-1.108,5.296-1.175,8.013v14.421
								h215.542v-14.421C283.18,274.091,282.402,267.928,279.813,262.393z"/>
							<g>
								<path style="fill:#FF6B57;" d="M173.304,237.321c0,1.892-1.533,7.571-3.425,7.571c-1.891,0-3.425-5.679-3.425-7.571
									c0-1.892,1.533-3.425,3.425-3.425C171.771,233.896,173.304,235.43,173.304,237.321z"/>
								<path style="fill:#FF6B57;" d="M163.737,239.295c1.799,0.585,6.726,3.798,6.142,5.597c-0.585,1.799-6.46,1.502-8.258,0.918
									c-1.799-0.585-2.783-2.517-2.199-4.316C160.006,239.695,161.939,238.711,163.737,239.295z"/>
								<path style="fill:#FF6B57;" d="M162.658,249.004c1.112-1.53,5.69-5.223,7.221-4.112c1.53,1.112-0.567,6.608-1.679,8.138
									c-1.112,1.53-3.254,1.869-4.784,0.758C161.886,252.676,161.547,250.534,162.658,249.004z"/>
								<path style="fill:#FF6B57;" d="M171.558,253.03c-1.112-1.53-3.209-7.026-1.679-8.138c1.53-1.112,6.109,2.581,7.221,4.112
									c1.112,1.53,0.773,3.672-0.758,4.784C174.812,254.899,172.67,254.56,171.558,253.03z"/>
								<path style="fill:#FF6B57;" d="M178.138,245.81c-1.799,0.585-7.674,0.881-8.258-0.918c-0.585-1.799,4.343-5.012,6.142-5.597
									c1.799-0.585,3.731,0.4,4.316,2.199C180.921,243.293,179.937,245.225,178.138,245.81z"/>
								<circle style="fill:#FFC741;" cx="169.879" cy="244.758" r="3.005"/>
							</g>
						</g>
						<g>
							<path style="fill:#788BF0;" d="M149.171,284.064c0,0-0.054-85.61-88.329-135.055
								C56.777,176.227,89.45,246.369,149.171,284.064z"/>
							<g>
								<g>
									<path style="fill:#FFFFFF;" d="M148.184,283.389c-0.326,0-0.646-0.159-0.838-0.453L67.303,160.518
										c-0.302-0.462-0.172-1.082,0.29-1.384c0.463-0.302,1.082-0.172,1.384,0.29l80.043,122.418
										c0.302,0.462,0.172,1.082-0.29,1.384C148.562,283.336,148.372,283.389,148.184,283.389z"/>
								</g>
							</g>
							<g>
								<g>
									<path style="fill:#FFFFFF;" d="M101.368,211.288c-0.035,0-0.07-0.003-0.106-0.011c-0.27-0.058-0.441-0.324-0.383-0.594
										l4.537-21.032c0.059-0.271,0.326-0.441,0.594-0.383c0.27,0.058,0.441,0.324,0.383,0.594l-4.537,21.032
										C101.805,211.128,101.598,211.288,101.368,211.288z"/>
								</g>
							</g>
							<g>
								<g>
									<path style="fill:#FFFFFF;" d="M117.883,236.547c-0.035,0-0.07-0.003-0.106-0.011c-0.27-0.058-0.441-0.324-0.383-0.594
										l5.627-26.082c0.059-0.27,0.325-0.443,0.594-0.383c0.27,0.058,0.441,0.324,0.383,0.594l-5.627,26.082
										C118.321,236.387,118.114,236.547,117.883,236.547z"/>
								</g>
							</g>
							<g>
								<g>
									<path style="fill:#FFFFFF;" d="M133.044,259.734c-0.042,0-0.084-0.005-0.127-0.017c-0.267-0.069-0.427-0.343-0.357-0.61
										l5.746-21.958c0.07-0.267,0.344-0.426,0.61-0.357c0.267,0.07,0.427,0.343,0.357,0.61l-5.746,21.958
										C133.468,259.585,133.265,259.734,133.044,259.734z"/>
								</g>
							</g>
							<g>
								<g>
									<path style="fill:#FFFFFF;" d="M89.843,193.664c-0.046,0-0.093-0.006-0.14-0.02l-17.186-5.019
										c-0.265-0.078-0.417-0.355-0.34-0.62c0.078-0.265,0.354-0.418,0.62-0.34l17.185,5.019c0.265,0.078,0.417,0.355,0.34,0.62
										C90.259,193.522,90.06,193.664,89.843,193.664z"/>
								</g>
							</g>
							<g>
								<g>
									<path style="fill:#FFFFFF;" d="M106.997,219.898c-0.053,0-0.107-0.008-0.159-0.026l-22.07-7.415
										c-0.262-0.088-0.403-0.372-0.315-0.633c0.088-0.261,0.374-0.4,0.633-0.315l22.07,7.415
										c0.262,0.088,0.403,0.372,0.315,0.633C107.401,219.766,107.206,219.898,106.997,219.898z"/>
								</g>
							</g>
							<g>
								<g>
									<path style="fill:#FFFFFF;" d="M123.301,244.833c-0.03,0-0.06-0.002-0.09-0.008l-16.987-3.093
										c-0.272-0.049-0.452-0.309-0.402-0.581c0.05-0.272,0.309-0.456,0.581-0.402l16.987,3.093
										c0.272,0.049,0.452,0.31,0.402,0.581C123.749,244.665,123.538,244.833,123.301,244.833z"/>
								</g>
							</g>
						</g>
						<g>
							<path style="fill:#788BF0;" d="M324.642,325.333c0,0,102.526-85.168,59.105-215.273
								C346.403,133.395,300.352,233.092,324.642,325.333z"/>
							<g>
								<g>
									<path style="fill:#FFFFFF;" d="M325.501,323.762c-0.087,0-0.177-0.012-0.266-0.036c-0.532-0.146-0.845-0.696-0.699-1.229
										l53.599-195.111c0.146-0.533,0.693-0.847,1.229-0.7c0.532,0.146,0.845,0.697,0.699,1.229l-53.599,195.111
										C326.343,323.471,325.94,323.762,325.501,323.762z"/>
								</g>
							</g>
							<g>
								<g>
									<path style="fill:#FFFFFF;" d="M356.85,209.144c-0.177,0-0.348-0.094-0.438-0.259c-0.133-0.242-0.045-0.546,0.197-0.679
										l30.48-16.752c0.242-0.133,0.546-0.044,0.679,0.197c0.133,0.242,0.045,0.546-0.197,0.679l-30.48,16.752
										C357.014,209.124,356.932,209.144,356.85,209.144z"/>
								</g>
							</g>
							<g>
								<g>
									<path style="fill:#FFFFFF;" d="M345.791,249.402c-0.177,0-0.348-0.094-0.439-0.259c-0.133-0.242-0.045-0.547,0.197-0.68
										l37.8-20.773c0.241-0.133,0.546-0.044,0.679,0.197c0.133,0.242,0.045,0.546-0.197,0.679l-37.8,20.773
										C345.955,249.382,345.873,249.402,345.791,249.402z"/>
								</g>
							</g>
							<g>
								<g>
									<path style="fill:#FFFFFF;" d="M335.639,286.357c-0.183,0-0.359-0.101-0.447-0.275c-0.124-0.247-0.024-0.548,0.223-0.672
										l32.995-16.564c0.248-0.124,0.547-0.024,0.671,0.223c0.124,0.247,0.024,0.548-0.223,0.672l-32.995,16.564
										C335.791,286.34,335.715,286.357,335.639,286.357z"/>
								</g>
							</g>
							<g>
								<g>
									<path style="fill:#FFFFFF;" d="M364.567,181.054c-0.161,0-0.319-0.077-0.415-0.221l-13.974-20.749
										c-0.154-0.229-0.094-0.54,0.135-0.694c0.228-0.153,0.54-0.094,0.694,0.135l13.974,20.749
										c0.154,0.229,0.094,0.54-0.135,0.694C364.76,181.026,364.663,181.054,364.567,181.054z"/>
								</g>
							</g>
							<g>
								<g>
									<path style="fill:#FFFFFF;" d="M353.081,222.866c-0.169,0-0.333-0.085-0.428-0.24l-16.784-27.609
										c-0.144-0.236-0.068-0.544,0.167-0.687c0.236-0.142,0.544-0.068,0.687,0.167l16.784,27.609
										c0.144,0.236,0.068,0.544-0.167,0.687C353.259,222.843,353.169,222.866,353.081,222.866z"/>
								</g>
							</g>
							<g>
								<g>
									<path style="fill:#FFFFFF;" d="M342.163,262.609c-0.14,0-0.28-0.059-0.379-0.174l-16.05-18.651
										c-0.18-0.21-0.157-0.525,0.053-0.705c0.208-0.18,0.525-0.157,0.705,0.053l16.05,18.651c0.18,0.209,0.157,0.525-0.053,0.705
										C342.395,262.569,342.279,262.609,342.163,262.609z"/>
								</g>
							</g>
						</g>
						<path style="fill:#788BF1;" d="M136.276,75.838c-3.54,0.565-6.901,2.64-10.455,2.169c-3.201-0.424-5.725-2.803-8.354-4.679
							c-2.629-1.876-6.593-3.218-9.423-1.663c-0.882-3.186-3.867-5.674-7.16-5.967c-3.292-0.293-6.67,1.629-8.101,4.609
							c-1.893-0.504-4.136,0.131-5.639,1.388c-0.15,0.126-0.295,0.258-0.434,0.396c-1.918,1.91-4.462,3.069-7.163,2.9
							c-1.712-0.107-3.475,0.141-5.108,0.649c-3.461,1.076-6.501,3.161-9.557,5.108c-3.056,1.947-5.661,5.016-9.285,5.016h109.352
							C154.999,84.876,146.411,74.22,136.276,75.838z"/>
						<path style="fill:#788BF1;" d="M323.721,75.989c4.474-2.253,10.915,0.803,11.244,6.148c0.071,1.151,0.309,2.295,0.869,3.303
							c3.851,6.923,9.867-1.115,14.595,1.059c3.264,1.501,3.076,6.535,5.901,8.755c1.832,1.44,4.402,1.3,6.647,1.924
							s4.69,2.107,6.502,5.048h-70.684c0.845-1.787,2.016-2.876,3.935-3.349c1.919-0.472,3.926-0.534,5.827-1.077
							c1.9-0.543,3.787-1.719,4.429-3.589c0.868-2.53-0.791-5.448,0.196-7.934c0.362-0.912,1.106-1.597,1.992-1.995
							c2.064-0.929,3.76-2.501,4.617-4.596c0.02-0.049,0.04-0.097,0.06-0.146C320.535,77.908,322.141,76.784,323.721,75.989z"/>
						<g>
							<g>
								<g>
									<g>
										<path style="fill:#2A244A;" d="M67.76,404.729v-94.867c0-12.024,9.747-21.771,21.771-21.771h326.56
											c12.024,0,21.771,9.747,21.771,21.771v94.867c0,12.024-9.747,21.771-21.771,21.771H89.53
											C77.507,426.5,67.76,416.753,67.76,404.729z"/>
										<path style="fill:#3C3175;" d="M67.76,385.532v-94.867c0-12.024,9.747-21.771,21.771-21.771h326.56
											c12.024,0,21.771,9.747,21.771,21.771v94.867c0,12.024-9.747,21.771-21.771,21.771H89.53
											C77.507,407.303,67.76,397.556,67.76,385.532z"/>
										<path style="fill:#788BF1;" d="M420.164,338.099c0,9.79,3.25,18.05,7.7,20.72v26.71c0,6.5-5.27,11.77-11.77,11.77h-315.03
											v-118.4h315.03c6.5,0,11.77,5.27,11.77,11.77v26.71C423.414,320.049,420.164,328.309,420.164,338.099z"/>
									</g>
									<ellipse style="fill:#2A244A;" cx="83.477" cy="341.233" rx="8.333" ry="10.039"/>
								</g>
								<g>
									<g>
										<path style="fill:#667EFF;" d="M371.544,397.299h-121.99v-96.87c-1.02-1.15-1.98-1.94-2.84-3.21
											c-4.13-6.11-8.25-12.22-12.37-18.32h37.96c12.25,8.01,21.67,20.24,26.31,34.11c1.92,5.73,3.04,11.69,4.74,17.48
											c1.45,4.92,3.32,9.72,5.59,14.32c3.17,6.42,7.18,12.54,12.62,17.2c12.09,10.34,29.85,12.38,41.33,23.39
											C366.464,388.819,369.214,392.919,371.544,397.299z"/>
										<path style="fill:#5771FF;" d="M274.024,397.299h-144.36v-118.4h118.2c4.26,3.91,7.82,8.63,10.42,13.79
											c5.68,11.28,7.06,24.43,5.28,36.94c-1.3,9.08-4.19,17.94-4.75,27.1C257.914,371.579,263.774,386.569,274.024,397.299z"/>
									</g>
									<path style="fill:#405DFF;" d="M199.604,286.499c-0.25,5.74-1.83,11.41-4.57,16.46c-3.22,5.94-7.96,10.9-12.92,15.49
										c-10.3,9.51-21.97,17.93-29.56,29.72c-9.25,14.36-10.94,33.07-5.3,49.13h-46.19v-118.4h97.91
										C199.534,281.369,199.714,283.969,199.604,286.499z"/>
								</g>
							</g>
							<rect x="113.184" y="292.548" style="fill:#FFFFFF;" width="5.417" height="91.102"/>
							<rect x="113.184" y="313.762" style="fill:#FF6B57;" width="5.417" height="69.887"/>
							<circle style="fill:#3C3175;" cx="115.892" cy="315.421" r="5.896"/>
						</g>
					</g>
				</g>
				<g>
					<path style="fill:#E4E9FF;" d="M145.808,331.81l0.283,4.026l-12.32,8.832c0,0-1.857,12.995,0.987,15.731
						c2.843,2.736,9.409,4.514,8.588,6.566c-0.821,2.052-12.174,3.557-14.226,1.915c-2.052-1.641-10.396-21.339-9.438-24.622
						c0.958-3.283,3.146-2.462,5.745-4.651s9.331-14.437,9.331-14.437L145.808,331.81z"/>
					<path style="fill:#E4E9FF;" d="M369.895,355.285c0.429,0.429,4.861,3.509,4.861,3.509s2.447,8.303,3.582,9.941
						c4.152,5.994,15.422,2.758,16.613,8.046c0.439,1.949-28.919,4.712-30.636-0.868c1.002-7.011-2.29-17.194-2.29-17.194
						L369.895,355.285z"/>
					<path style="fill:#E35340;" d="M303.926,251.306c0,0,61.201,4.098,65.845,11.475c4.645,7.377,6.284,96.014,6.284,96.014
						s-7.563,5.191-13.573,2.732c0,0-14.841-27.163-13.748-45.195c1.093-18.032-2.459-34.425-2.459-34.425
						s-53.004,28.141-82.511,9.563L303.926,251.306z"/>
					<path style="fill:#FF6B57;" d="M271.757,234.169l30.333,10l8.333,13c0,0-21.761,36.667-84.547,53.333
						c-56.119,14-79.786,25.333-79.786,25.333s-10-1.333-11.333-10.667c0,0,18-35.333,63.333-34.333c10.667,1,29-11,34.333-20.667
						C237.757,260.503,248.091,237.169,271.757,234.169z"/>
					<path style="fill:#E4E9FF;" d="M318.091,208.503l4.304,9.552c0,0,3.363,20.115-11.971,39.115c0,0-27.667-5.333-38.667-23
						c0,0,10.667-8,9.667-23.333L318.091,208.503z"/>
					<path style="fill:#FF6B57;" d="M279.091,150.3l32.665,11.97c7.015,2.571,11.799,9.335,11.423,16.797
						c-0.177,3.503-1.365,7.334-4.421,11.102c0,0,6.667,10.333,6,27c0,0-25.333,11-45.667-3c0,0,3.537-19.435-9.898-39.384
						L279.091,150.3z"/>
					<circle style="fill:#3C3175;" cx="225.877" cy="140.761" r="9.539"/>
					<polygon style="fill:#FFFFFF;stroke:#000000;stroke-linecap:round;stroke-linejoin:round;stroke-miterlimit:10;" points="
						276.213,131.95 283.245,155.451 269.84,157.997 263.498,136.716 					"/>
					<path style="fill:#BDC9FF;" d="M251.424,108.164c0,0,11.964-3.516,18.256,1.85l2.961,2.22l7.957,0.925l-1.665,3.146
						l8.697,6.847c0,0,2.22,7.402-16.099,15.359l-4.626,2.776l-15.48,3.146c0,0-4.875-12.768-4.875-13.323
						s-0.925-17.579-0.925-17.579L251.424,108.164z"/>
					<g>
						<path style="fill:#3C3175;" d="M271.064,113.492c-1.526-0.789-3.091-1.12-4.431,0.195c-1.099,1.08-0.897,2.835,0.018,3.935
							c0.413,0.496,1.116-0.215,0.707-0.707c-0.69-0.831-0.609-1.941,0.151-2.686c0.894-0.878,2.12-0.355,3.05,0.126
							C271.131,114.65,271.637,113.788,271.064,113.492z"/>
						<path style="fill:#3C3175;" d="M265.111,110.455c-0.821,1.749-1.378,3.567-1.646,5.481c-0.089,0.63,0.875,0.902,0.964,0.266
							c0.256-1.825,0.761-3.573,1.545-5.242C266.247,110.38,265.385,109.871,265.111,110.455z"/>
						<path style="fill:#3C3175;" d="M281.299,119.155c-0.399,2.504-2.258,4.402-4.807,4.694c-0.633,0.072-0.64,1.073,0,1
							c2.966-0.339,5.297-2.45,5.772-5.428C282.364,118.79,281.4,118.519,281.299,119.155z"/>
						<path style="fill:#3C3175;" d="M281.886,123.506c-0.258,0.567-0.676,0.988-1.273,1.189c-0.608,0.205-0.347,1.171,0.266,0.964
							c0.83-0.28,1.505-0.845,1.87-1.649C283.015,123.429,282.153,122.92,281.886,123.506z"/>
					</g>
					<path style="fill:#3C3175;" d="M251.908,108.192c-7.294-0.024-14.494,3.785-18.577,9.829
						c-4.083,6.044-4.931,14.145-2.186,20.903c2.744,6.758,9,11.975,16.141,13.46c3.631,0.756,7.426,0.592,11.036-0.258
						c1.997-0.47,3.997-1.176,5.553-2.514c2.023-1.739,3.107-4.51,2.801-7.159c-0.306-2.649-1.993-5.101-4.358-6.333
						c-0.641,1.976-2.607,3.419-4.67,3.667c-2.063,0.247-4.256-0.951-5.035-2.877s0.042-4.4,1.882-5.363
						c1.412-0.739,3.106-0.575,4.689-0.391c1.166,0.135,1.512-1.957,1.129-3.067c-0.383-1.109-1.376-1.904-2.429-2.422
						c-1.053-0.518-2.2-0.819-3.265-1.313c-2.897-1.342-5.059-4.166-5.597-7.313C248.484,113.895,249.622,110.421,251.908,108.192z"
						/>
					<path style="fill:#E4E9FF;" d="M205.721,83.609l45.702,39.56l15.245,41c0,0,0,20.985,18.644,18.881
						c3.861-0.436,7.424-2.524,9.498-5.81c5.601-8.874,2.808-20.18-11.565-26.94c0,0-12.571-39.631-26.571-49.381l-42.743-23.271
						c-1.464-0.797-2.627-2.052-3.311-3.572l-0.357-0.794c-0.562-1.249-1.446-2.318-2.564-3.108
						c-2.953-2.083-6.524-5.255-9.911-5.094c-1.863,0.465-8.434-2.823-9.392-1.718c-0.958,1.106-0.853,3.708,1.138,6.14
						c1.99,2.432,6.633,8.55,6.633,8.55s-3.39-0.221-2.874,0.811C193.807,79.894,196.556,85.04,205.721,83.609z"/>
					<path style="fill:#3C3175;" d="M281.978,146.393c-0.267-0.586-1.129-0.077-0.863,0.505c2.85,6.251,4.306,12.914,4.348,19.783
						c0.004,0.645,1.004,0.645,1,0C286.42,159.631,284.903,152.806,281.978,146.393z"/>
					<path style="fill:#3C3175;" d="M318.062,189.552c-3.761,2.524-8.154,3.234-12.514,2c-0.622-0.176-0.885,0.789-0.266,0.964
						c4.599,1.301,9.314,0.564,13.285-2.1C319.099,190.058,318.599,189.191,318.062,189.552z"/>
					<path style="fill:#3C3175;" d="M303.064,253.872c-11.728-2.48-22.19-8.966-29.639-18.357c-0.401-0.505-1.103,0.208-0.707,0.707
						c7.544,9.51,18.205,16.102,30.08,18.614C303.427,254.969,303.694,254.005,303.064,253.872z"/>
					<path style="fill:#3C3175;" d="M254.745,121.175c-2.587,2.109-6.119-2.402-7.862-4.021c-1.929-1.792-3.858-3.583-5.787-5.375
						c-0.472-0.438-1.18,0.268-0.707,0.707c3.094,2.873,6.167,5.771,9.287,8.615c1.688,1.539,3.863,2.34,5.776,0.78
						C255.952,121.474,255.24,120.771,254.745,121.175z"/>
					<path style="fill:#3C3175;" d="M305.907,262.953c-9.866,12.432-22.282,22.573-36.438,29.75
						c-0.575,0.292-0.069,1.154,0.505,0.863c14.225-7.213,26.726-17.414,36.64-29.907
						C307.011,263.16,306.308,262.448,305.907,262.953z"/>
					<path style="fill:#3C3175;" d="M313.063,243.65c-0.645,0-0.645,1,0,1C313.707,244.65,313.707,243.65,313.063,243.65z"/>
				</g>
			</g>
		</g>
	</g>
</g>
</svg>
